PathFileType	4	(X/Y/Z)	pose2sim_0-881.trc
DataRate	CameraRate	NumFrames	NumMarkers	Units	OrigDataRate	OrigDataStartFrame	OrigNumFrames
50	50	8	22	m	50	220	882
Frame#	Time	Hip			RHip			RKnee			RAnkle			RBigToe			RSmallToe			RHeel			LHip			LKnee			LAnkle			LBigToe			LSmallToe			LHeel			Neck			Head			Nose			RShoulder			RElbow			RWrist			LShoulder			LElbow			LWrist			
		X1	Y1	Z1	X2	Y2	Z2	X3	Y3	Z3	X4	Y4	Z4	X5	Y5	Z5	X6	Y6	Z6	X7	Y7	Z7	X8	Y8	Z8	X9	Y9	Z9	X10	Y10	Z10	X11	Y11	Z11	X12	Y12	Z12	X13	Y13	Z13	X14	Y14	Z14	X15	Y15	Z15	X16	Y16	Z16	X17	Y17	Z17	X18	Y18	Z18	X19	Y19	Z19	X20	Y20	Z20	X21	Y21	Z21	X22	Y22	Z22	
220	4.4	0.13565228781965158	0.9779701745128947	-0.04539115627689934	0.03303018661650287	0.9618552732188456	-0.044095300325704266	0.012536206444509581	0.5176807050061188	-0.0791750947777027	0.00222242060335869	0.08673104700191327	-0.08280759718683302	-0.0037749165384937645	0.0347268326697925	0.10273199505375522	-0.05335810561577853	0.034415691003835215	0.053487332515355875	0.013398353047347968	0.03954914951224986	-0.12781647248154035	0.24220989957807146	0.9590692338161817	-0.05491243033610688	0.24230623839377724	0.5174795564701795	-0.10641549430241426	0.24706279461865863	0.08595738976191386	-0.11116351264196145	0.2789722097341852	0.03215130513502755	0.08505192613617092	0.31873565039218127	0.029235190592197972	0.021460377287033764	0.2296478075952465	0.03982477326434007	-0.1483490629798015	0.15304849723526048	1.5789893513482705	-0.07495761965860159	0.15437955527719022	1.8213713780877685	-0.04359269973361576	0.15638045466806474	1.6982483560532042	0.08625311015094347	-0.009895568860554687	1.4734803636683482	-0.06349801613686908	-0.07229028089371352	1.208130375601315	0.024539184014466996	-0.16565942030152894	1.0210455150925124	0.19484309254451063	0.31530129674746876	1.4689984453520077	-0.08851975469515486	0.3722927573307214	1.2033332840876414	-0.010231358698154645	0.4571489710131297	0.9888126655157297	0.09649864593309446
221	4.42	0.13488344095758806	0.9711906954552156	-0.05292510143256837	0.031373081680229044	0.9591078335474673	-0.04985820050441129	0.012765936256520461	0.5199965635423492	-0.07374108383724697	0.003970269628419756	0.09400123056850633	-0.08209033488744805	0.0021416803159280814	0.03792187982955158	0.06907751029859603	-0.0486131145873341	0.04049761471921049	0.029489051617190596	0.01318763590203244	0.05025927144371442	-0.1195937860438899	0.24437229426577714	0.9549209910049196	-0.06306618654236205	0.24288372657753424	0.5222138806832682	-0.11075797042950378	0.24745437291089328	0.09190244099812507	-0.10912777880639063	0.27719856427896533	0.034938367581352964	0.06119773571398363	0.3270058259821672	0.039304422384537206	0.004194378604076638	0.23331384233363986	0.047675460046881286	-0.14047776622011937	0.15278053129254712	1.5786979396506762	-0.06650568858810665	0.15207190576872193	1.8216867699608013	-0.02790859094007143	0.15236542234002584	1.6910333177225585	0.11047183506756897	-0.006762343152757899	1.473949899722642	-0.06218867892065973	-0.07074331955842551	1.2021028182493456	0.01824526219581398	-0.1701972253695492	1.0138217565933256	0.16067678897319868	0.3188836834671108	1.4673375197272849	-0.09655253665515788	0.37427345352123853	1.1980718766029652	-0.019304523895676835	0.4552198155435645	0.9814245437457535	0.07026825385617151
222	4.44	0.1355034304599672	0.9713541870923567	-0.05214697629334618	0.030180691810676386	0.9596610359377591	-0.04217570313857098	0.012425415662672128	0.5219624187679571	-0.07177581488153476	0.004387865397352098	0.09420674216648095	-0.08778682579867833	0.004766640717866337	0.039515180975133186	0.07689297637152338	-0.045958002002269384	0.043615834009180295	0.03452997579034288	0.01221120975280391	0.04932318112814952	-0.12197815918365684	0.24431349657280949	0.9558145956002241	-0.061725476696146905	0.2439050527756638	0.522191939162329	-0.10745723086710163	0.24540795914123595	0.09345638832986042	-0.10733362137532426	0.277685055520006	0.038516335457287665	0.07079442542471195	0.3240778043843488	0.037522143859880105	0.010784770876937362	0.23113720993371462	0.04772461456038289	-0.13719990791726008	0.15436524282939326	1.5781351160434063	-0.06874258933022014	0.15409093181977393	1.8250080359475942	-0.024756739250161364	0.1568757753319975	1.6922818858978408	0.1024407177037106	-0.009689195536684342	1.4740796468783868	-0.056795337362273685	-0.06959127739553272	1.2033143249769915	0.018189110332329818	-0.1645112798456642	1.0042778047461642	0.15524275819615432	0.31955083256156	1.4688941294158913	-0.09304866108008206	0.36991739817975017	1.1958930315326888	-0.02682826179706262	0.4529505774699175	0.97816261864533	0.049018182624527284
223	4.46	0.13479832137449174	0.9734169890252649	-0.051637334449474326	0.029169194239966494	0.961625258523829	-0.0417884718992112	0.014397477296708565	0.5234140083865267	-0.07275170385918954	0.0033319656768432725	0.09348455326643831	-0.08660249207495194	0.006554803989850424	0.039928044222705024	0.07218715333783608	-0.043608733756777436	0.04407278277114529	0.03675808025958404	0.010908658375009966	0.051585638650591625	-0.12476382716291334	0.2432742477261707	0.9579172243904029	-0.0666333776789083	0.24136720057128713	0.5191131683294633	-0.10826106245631335	0.24649958269649158	0.0926593091549601	-0.10405986004471872	0.2734548029263767	0.0390394117380041	0.06153570525789736	0.32080874076406013	0.03974228426988263	0.012465087674879175	0.2305044838144528	0.047225366371991866	-0.13945485234613014	0.15525299021323544	1.580072317832348	-0.06387158149463779	0.1547263310245415	1.8258680969600234	-0.026654068876244982	0.15747393067161652	1.6953909252739356	0.10073774160891621	-0.009319546044283802	1.4730479986332716	-0.059632119969716554	-0.0696100215724993	1.202263016878541	0.017749299202856606	-0.15865877406522483	0.9971234813128083	0.1540538282577261	0.32095925087089533	1.4688438074347825	-0.08792715849038293	0.36788111957994296	1.1961387298310768	-0.03312105400790531	0.4475979140989264	0.9694794173688138	0.03523961667830882
224	4.48	0.13681255580500473	0.9750544520493646	-0.044975641074141356	0.03321719432862995	0.9615950565594595	-0.04091338001322481	0.01174923696374417	0.5151880590846567	-0.07161934605042554	0.0021673188537211425	0.08837348926295639	-0.08380626131449746	0.001090283679286396	0.03473424395552407	0.1059321422152821	-0.047794784391697	0.0357429395691276	0.05806238766031225	0.009590156844794613	0.04250347661032391	-0.12460912210991709	0.24312681625745586	0.957761553831327	-0.052947612801912465	0.24219188677311063	0.5165676967110879	-0.10925538948139923	0.24707956675324044	0.08780360365053895	-0.10596986820162647	0.28372667791740114	0.03719192327940684	0.08477858922474253	0.3202186894644888	0.03495469350186962	0.024876842824574946	0.22837235618455126	0.04235293236760676	-0.1445722401570264	0.157016054402742	1.5799409278965562	-0.06829172505718469	0.15924330655715102	1.8224192673575221	-0.020438647678560084	0.15708665914940648	1.6982293330029057	0.10311860651856024	-0.009202486894557053	1.4720598112854861	-0.05427154110785776	-0.06893388825755305	1.197921034296843	0.01588183747339812	-0.1635673130667517	0.9850848152665392	0.13883907865916015	0.31692075589606233	1.4677332498303046	-0.08281486718615419	0.36859623585917145	1.193141105592368	-0.032880880112979884	0.4411005072305186	0.9647648296247996	0.03313243570214997
225	4.5	0.1359912825162357	0.9702848861388685	-0.04699661428733689	0.027870183571966575	0.9585128912691033	-0.046832225969857984	0.012909940963387323	0.5215520087283897	-0.07790381378866919	0.00657476762450461	0.09566523781776108	-0.0867651227319026	0.006947834165644883	0.03897152622140562	0.07582230432014885	-0.045323873741257265	0.04313736328683043	0.03414666148658067	0.012627524348816409	0.05056364530112492	-0.12280621933724527	0.24507458640442215	0.9565922666027401	-0.06232100810028884	0.24439729989389342	0.5185337050965846	-0.10650041131991664	0.24479000826500044	0.09211986505934962	-0.10675954221163467	0.28122348318769136	0.03694633904777875	0.07679135020393538	0.32384522712862235	0.03841494601400394	0.013496359383611734	0.23038339065575497	0.04637596898488705	-0.14232051311737318	0.15606787790912563	1.5793150520922943	-0.06419146097615236	0.15589649031820627	1.824569100240875	-0.020294363087245092	0.1584654363590724	1.6953757269174266	0.11304809168257332	-0.01041249304158188	1.473181493425261	-0.05656067779199279	-0.06987472025529347	1.1963846999042735	0.008924346868170079	-0.15981649324642452	0.9832013617124428	0.11353849504540976	0.3222342270535444	1.4681001931619733	-0.0885879835109063	0.36796345717508155	1.1925102180287273	-0.032141147052884	0.4416950999505003	0.9635640934820604	0.00685586788592393
226	4.52	0.13560880718035184	0.9688933735227128	-0.04884180529145036	0.02810351260667946	0.9574920856153264	-0.042341986885464256	0.013066936930015495	0.5220356515241515	-0.07379296431978398	0.0066199381580505645	0.09291585470309785	-0.08108340649320157	0.0070494388139576624	0.0376162769117655	0.0810810394685499	-0.04371841652242732	0.04179358741456787	0.038851205179079217	0.0125421626838388	0.04803142691253614	-0.12161566326814348	0.2428747295189382	0.9558457697079625	-0.060318908846738704	0.24304601830576414	0.5190294987635342	-0.11594281714004814	0.24706654274852155	0.09516741591362247	-0.10641325289336451	0.28832533655472403	0.03828420386394994	0.0702849797251167	0.3290484583434877	0.040637934181984824	0.00901952924240428	0.23695172887168006	0.046469778317920624	-0.13909245368258008	0.15695528029100284	1.5811697619719611	-0.06195119940579317	0.16099418127971188	1.8279807493127411	-0.022807993431713837	0.16461641560279225	1.699274914912297	0.10026610974193734	-0.010739844750308453	1.475055385590281	-0.0579063830997313	-0.06763510566562685	1.1962759870968542	0.0008904199651676837	-0.15758881518140475	0.9786662159720154	0.10515375077691509	0.3214260036137904	1.467182994064746	-0.08269817983640386	0.3675821575135072	1.1910223327980436	-0.04318635563679275	0.43849261140291734	0.9570931806616756	0.002424284705539412
227	4.54	0.13402083731646922	0.9692949313152359	-0.04373242853495839	0.026417650144885754	0.9589569936413538	-0.0377647578435883	0.012877512652315577	0.5239293975339164	-0.07131696242597133	0.004528393726087745	0.09380445705692925	-0.08139248146830219	0.007079163329527409	0.03681731603654482	0.08582367382510206	-0.045701004877594945	0.04101348444961396	0.0412598698500131	0.010890260557554895	0.048662888192071894	-0.11750445313255292	0.24132186067478498	0.9570478110894914	-0.06046813143108181	0.24360970114422956	0.5194120959129652	-0.11279218694705362	0.24586037333855676	0.09609827711492049	-0.11082129824038053	0.2889240256379512	0.03870255630934126	0.06651219582986924	0.329569449750585	0.04120680808686328	0.005502381650654359	0.2344874860028201	0.050492344130644684	-0.1379948034727306	0.1555171709331552	1.5799287863807823	-0.058725766103460045	0.16376595647855005	1.826248479917065	-0.021238201271432108	0.16805794398481638	1.6982626454577217	0.10665306537370325	-0.009649036794921045	1.4723623852301735	-0.054866934300153145	-0.07111427448756892	1.1925183731370474	0.0015571420981896431	-0.15501839358746242	0.972182547997713	0.10018242501015243	0.32366972696104207	1.4671291119100904	-0.07848372098597207	0.3633335366815363	1.190603508985043	-0.05231730160606058	0.43510026512371175	0.9558834973921997	0.0007027138977434412
